<svg version="1.1" xmlns="http://www.w3.org/2000/svg" xmlns:xlink="http://www.w3.org/1999/xlink" preserveAspectRatio="xMidYMid meet" viewBox="861 385 127 148"><g data-item-type="text" data-item="Business" id="logo__item--business" class="logo__item">
                <g class="logo__item__inner" transform="translate(865.203125 530.7174615991905) scale(1 1) rotate(0 0 0)">
                    <text data-part-id="logo__item--business" dy="0" dominant-baseline="auto" alignment-baseline="auto" font-family="Montserrat" font-size="32px" fill="#C7203B" letter-spacing="0" font-weight="bold" font-style="normal" data-font-family="Montserrat" data-font-weight="bold" data-font-style="normal" data-ttf-url="/builder_assets/fontsttf/font-montserrat-bold-normal.ttf">Wheels</text>
                </g>
            </g><g data-item-type="image" data-item="Image" data-logo-item="" id="logo__item--logo_0" class="logo__item">
    <g class="logo__item__inner" transform="translate(854.2166750508115 368.5) scale(1.4167004059067014 1.4167004059067014) rotate(0 0 0)">
        
<g>
	<path fill="#C7203B" d="M92.31,35.601c-0.026-3.802-1.211-7.623-3.571-10.625c-1.226-1.51-2.72-2.796-4.379-3.79   c-4.412-2.605-9.71-3.209-14.74-2.788c-8.142,0.717-15.9,3.931-22.749,8.294c-1.843,1.22-3.704,2.428-5.347,3.908   c7.149-4.682,15.308-8.314,23.958-8.628c5.021-0.217,10.336,0.947,14.198,4.334c1.968,1.856,3.495,4.2,4.221,6.823   c1.218,4.096,0.718,8.486-0.484,12.525c-1.316,4.121-3.361,7.992-5.872,11.512c-6.724,9.227-16.268,16.459-27.069,20.213   c-5.515,1.853-11.521,2.778-17.276,1.551c-1.243-0.22-2.386-0.762-3.621-1.018c3.678,2.229,7.991,3.263,12.271,3.229   c7.065,0.067,13.981-2.106,20.27-5.214c8.785-4.484,16.617-10.953,22.398-18.966c2.327-3.224,4.297-6.717,5.731-10.429   C91.541,43.04,92.392,39.342,92.31,35.601z" data-part-id="logo__item--logo_0__0"></path>
	<path fill="#6D6E70" d="M40.506,40.687c0.742,2.528,2.46,4.776,4.78,6.048c1.709-1.786,3.787-3.191,6.04-4.188   c0.55-1.442,1.26-2.819,1.985-4.179l-0.017-0.029c2.661-4.626,6.073-8.787,9.985-12.413c-8.584,0.663-16.568,4.667-23.291,9.858   C39.88,37.434,40.055,39.098,40.506,40.687z" data-part-id="logo__item--logo_0__1"></path>
	<path fill="#6D6E70" d="M68.801,61.839c5.356-5.423,9.803-12.18,11.02-19.83c-6.105-0.461-12.17,1.464-17.483,4.349   c0.125,1.555-0.126,3.13-0.776,4.552C65.557,53.129,68.268,57.316,68.801,61.839z" data-part-id="logo__item--logo_0__2"></path>
	<g>
		<g>
			<path fill="#C7203B" d="M76.734,30.206c-1.867-2.044-4.479-3.278-7.157-3.858c-0.342,0.083-0.601,0.354-0.876,0.552     c-2.135,1.733-4.163,3.606-5.956,5.689c-2.411,2.669-4.43,5.702-5.989,8.947c1.201,0.119,2.345,0.518,3.387,1.116     c2.002-1.148,4.096-2.142,6.256-2.945l0.017-0.049c4.296-1.6,8.859-2.682,13.473-2.532     C79.555,34.576,78.545,32.066,76.734,30.206z" data-part-id="logo__item--logo_0__3"></path>
			<path fill="#C7203B" d="M34.992,40.285c-1.51,1.525-2.928,3.145-4.221,4.863c-3.32,4.405-5.973,9.475-6.791,14.98     c3.103,0.268,6.231-0.163,9.226-0.968c2.878-0.788,5.631-1.968,8.267-3.354c-0.217-1.585,0.184-3.158,0.742-4.633     C38.187,49.029,35.534,44.774,34.992,40.285z" data-part-id="logo__item--logo_0__4"></path>
			<path fill="#C7203B" d="M48.781,55.557c1.652,0.084,3.228-0.617,4.572-1.518c1.585-1.105,2.986-2.646,3.537-4.534     c0.2-0.847,0.241-1.994-0.593-2.52c-1.034-0.676-2.377-0.405-3.486-0.083c-1.97,0.655-3.671,2.014-4.897,3.675     c-0.726,1.051-1.36,2.352-1.059,3.653C47.021,55.109,47.972,55.523,48.781,55.557z" data-part-id="logo__item--logo_0__5"></path>
			<path fill="#C7203B" d="M58.516,55.385c-1.693,1.798-3.778,3.217-6.039,4.201c-2.586,6.402-6.94,11.949-11.971,16.617     c8.567-0.622,16.542-4.651,23.273-9.818C64.222,62.131,62.369,57.518,58.516,55.385z" data-part-id="logo__item--logo_0__6"></path>
		</g>
	</g>
	<path fill="#6D6E70" d="M25.773,70.309c1.877,2.983,5.164,4.834,8.567,5.514c3.412-2.644,6.532-5.7,9.068-9.205   c1.409-1.867,2.611-3.895,3.612-6.006c-1.167-0.13-2.294-0.483-3.286-1.118c-1.794,0.955-3.612,1.857-5.489,2.638   c-4.546,1.826-9.418,3.048-14.349,2.873C24.147,66.876,24.756,68.707,25.773,70.309z" data-part-id="logo__item--logo_0__7"></path>
	<path fill="#6D6E70" d="M39.596,82.944c-5.271-0.081-10.62-1.398-14.99-4.427l0.032-0.012c-3.311-2.349-5.738-5.849-6.832-9.753   c-0.935-3.328-0.901-6.864-0.309-10.251c1.335-7.041,5.005-13.418,9.468-18.937c5.689-6.884,12.854-12.488,20.747-16.629   c7.699-3.992,16.257-6.636,24.992-6.67c4.146,0.09,8.425,0.641,12.179,2.507c-0.024-0.071-0.065-0.205-0.091-0.273   c-5.856-3.751-13.055-4.732-19.879-4.244c-10.219,0.767-20.038,4.525-28.712,9.874c-7.692,4.766-14.59,10.887-19.962,18.188   c-3.955,5.432-7.066,11.62-8.242,18.28c-0.525,3.229-0.542,6.553,0.125,9.761c0.976,4.459,3.545,8.518,7.165,11.307   c2.503,1.932,5.431,3.263,8.476,4.105c5.013,1.367,10.31,1.468,15.44,0.816c6.365-0.805,12.547-2.772,18.353-5.473   c4.221-2.014,8.342-4.32,12.079-7.152C66.182,75.87,62.703,77.792,59,79.188C52.835,81.592,46.236,83.098,39.596,82.944z" data-part-id="logo__item--logo_0__8"></path>
</g>

    </g>
</g></svg>